C:\GBW_MyPrograms\KinderuniversiteitApp\Resultaten\TymenKool\Model3_v1.mot
version=1
nRows=6
nColumns=31
inDegrees=yes
endheader
                time	         pelvis_tilt	           pelvis_tx	           pelvis_ty	       hip_flexion_r	        knee_angle_r	       ankle_angle_r	       hip_flexion_l	        knee_angle_l	       ankle_angle_l	    lumbar_extension	          arm_flex_r	          arm_flex_l	hamstrings_r/activation	bifemsh_r/activation	glut_max_r/activation	iliopsoas_r/activation	rect_fem_r/activation	  vasti_r/activation	gastroc_r/activation	 soleus_r/activation	tib_ant_r/activation	hamstrings_l/activation	bifemsh_l/activation	glut_max_l/activation	iliopsoas_l/activation	rect_fem_l/activation	  vasti_l/activation	gastroc_l/activation	 soleus_l/activation	tib_ant_l/activation	
          0.30000148	         -1.90605206	          0.40668795	          0.72187455	        -35.98578193	        -11.51801300	          6.74279752	         -3.20507414	          8.88769837	         14.57908065	         -9.23260800	        -52.58528020	        -52.58528020	          0.27038404	          0.48750115	          0.15217150	          0.19169325	          0.17247659	          0.29747158	          0.12035332	          0.23092440	          0.56210666	          0.36123782	          0.42770429	          0.10717067	          0.41443220	          0.60562148	          0.18661543	          0.27304802	          0.19937853	          0.20647225	
          0.30200149	         -1.88889102	          0.39796708	          0.83222106	        -30.92114196	        -12.00745639	          6.99240490	         -3.52888908	         10.31157448	         13.77275002	         -9.27769102	        -52.49829734	        -52.49829734	          0.33409019	          0.45884916	          0.23139429	          0.17169986	          0.15275216	          0.36809109	          0.19791144	          0.29835284	          0.53152277	          0.42006761	          0.47452485	          0.19627933	          0.38594945	          0.56683785	          0.16179114	          0.33269411	          0.17392509	          0.28844500	
          0.30400150	         -1.85085655	          0.38760425	          0.85080983	        -23.11806029	         -9.86111536	          7.50995046	         -3.26654283	         11.35105205	         12.57980474	         -9.32251161	        -52.40779354	        -52.40779354	          0.30556008	          0.44210212	          0.29707807	          0.23295138	          0.19424405	          0.34679992	          0.25966311	          0.29466484	          0.56704359	          0.39376690	          0.46027035	          0.17555126	          0.44358637	          0.59139367	          0.22333174	          0.31401726	          0.24183248	          0.29916102	
          0.30600151	         -1.83968855	          0.37534073	          0.86137884	         -7.73846836	          8.72530227	          7.71194897	         -4.14075273	          9.44586689	         11.35585202	         -9.36997728	        -52.32950419	        -52.32950419	          0.28698969	          0.41780950	          0.35110755	          0.22161505	          0.22568236	          0.39648350	          0.32245839	          0.35040794	          0.54807896	          0.38891229	          0.44440518	          0.15904283	          0.42900708	          0.57568707	          0.22094298	          0.29585208	          0.29681218	          0.28635253	
          0.30800152	         -1.87534632	          0.36089843	          0.86879777	         -4.71754217	         -9.61246397	          7.93885837	         -3.98484539	         11.25666994	         10.52644208	         -9.43076966	        -52.22338358	        -52.22338358	          0.34861624	          0.39891215	          0.40994702	          0.20602059	          0.20922088	          0.37462184	          0.38353012	          0.40704843	          0.51028187	          0.42986384	          0.42443638	          0.23587595	          0.40844641	          0.55068454	          0.28437576	          0.27636837	          0.32569486	          0.26867797	
          0.31000153	         -1.95080785	          0.34396596	          0.86300131	         -2.52957784	        -15.80956134	          8.51908383	         -3.15551558	         10.08217235	          9.91324080	         -9.49840900	        -52.12813510	        -52.12813510	          0.40296783	          0.44478587	          0.39323405	          0.27110961	          0.19558767	          0.34740402	          0.41632918	          0.45217046	          0.47538500	          0.41684355	          0.40600715	          0.24100768	          0.39775711	          0.52794536	          0.33677155	          0.25933955	          0.31196766	          0.33511600	
